<?xml version="1.0" encoding="iso-8859-1"?>
<!-- Generator: Adobe Illustrator 19.1.0, SVG Export Plug-In . SVG Version: 6.00 Build 0)  -->
<svg version="1.1" id="Capa_1" xmlns="http://www.w3.org/2000/svg" xmlns:xlink="http://www.w3.org/1999/xlink" x="0px" y="0px"
	 viewBox="0 0 64.493 64.493" style="enable-background:new 0 0 64.493 64.493;" xml:space="preserve">
<g>
	<g id="group-43svg">
		<path id="path-1_36_" style="fill:#E56A77;" d="M58.178,19.404c5.051-0.939,5.205-15.871,5.205-15.871l-11.674,9.674
			c-4.541-3.141-10.047-4.985-15.985-4.985c-6.142,0-11.819,1.973-16.445,5.311l-12.068-10c0,0,0.173,16.53,6.043,15.89
			c-3.558,4.711-5.67,10.576-5.67,16.935c0,15.538,12.599,28.135,28.14,28.135c15.54,0,28.138-12.597,28.138-28.135
			C63.862,29.99,61.744,24.118,58.178,19.404z"/>
		<path id="path-2_36_" d="M30.643,63.961c-16.343,0-29.639-13.294-29.639-29.635c0-5.743,1.614-11.229,4.687-15.999
			C1.04,15.595,0.657,4.072,0.63,1.517c-0.006-0.584,0.328-1.119,0.855-1.37c0.526-0.253,1.153-0.174,1.602,0.199L14.28,9.621
			c4.86-3.23,10.492-4.931,16.363-4.931c5.667,0,11.135,1.593,15.886,4.619l10.816-8.963c0.45-0.373,1.073-0.452,1.602-0.199
			c0.527,0.251,0.861,0.785,0.855,1.37c-0.024,2.368-0.366,13.065-4.475,16.403c3.247,4.864,4.955,10.499,4.955,16.406
			C60.282,50.667,46.986,63.961,30.643,63.961z M8.174,15.891c0.535,0,1.035,0.287,1.303,0.759c0.296,0.521,0.254,1.167-0.107,1.644
			c-3.51,4.65-5.366,10.194-5.366,16.032c0,14.687,11.95,26.636,26.639,26.636c14.688,0,26.639-11.949,26.639-26.636
			c0-5.847-1.861-11.396-5.381-16.05c-0.314-0.414-0.39-0.961-0.202-1.446c0.187-0.485,0.613-0.838,1.124-0.933
			c2.045-0.38,3.364-5.919,3.811-11.066l-9.049,7.498c-0.517,0.43-1.258,0.461-1.81,0.079C41.312,9.321,36.08,7.69,30.643,7.69
			c-5.627,0-11.009,1.738-15.567,5.027c-0.554,0.4-1.309,0.375-1.835-0.061L3.797,4.83c0.463,5.387,1.866,11.079,4.048,11.079
			c0.054,0,0.109-0.003,0.166-0.009C8.065,15.894,8.119,15.891,8.174,15.891z"/>
		<path id="path-3_36_" d="M16.134,52.508c-0.828,0-1.5-0.671-1.5-1.5c0-7.586,6.109-13.995,13.341-13.995h5.92
			c7.231,0,13.341,6.259,13.341,13.668c0,0.828-0.672,1.5-1.5,1.5c-0.829,0-1.5-0.672-1.5-1.5c0-5.783-4.736-10.668-10.341-10.668
			h-5.92c-5.509,0-10.341,5.138-10.341,10.995C17.634,51.837,16.963,52.508,16.134,52.508z"/>
		<path id="path-4_36_" d="M23.209,25.228c-0.248,0-0.498-0.061-0.728-0.189l-2.549-1.419c-0.24-0.046-0.485-0.073-0.732-0.078
			c-1.117-0.016-2.138,0.377-2.888,1.127c-0.586,0.586-1.535,0.586-2.121,0c-0.586-0.586-0.586-1.536,0-2.121
			c0.49-0.489,1.041-0.895,1.64-1.211l-1.309-0.728c-0.724-0.403-0.984-1.316-0.581-2.04c0.403-0.723,1.315-0.984,2.04-0.581
			l5.034,2.802c1.225,0.326,2.346,0.967,3.256,1.878c0.529,0.529,0.587,1.367,0.137,1.964
			C24.115,25.019,23.667,25.228,23.209,25.228z"/>
		<path id="path-5_36_" d="M37.632,25.228c-0.458,0-0.906-0.209-1.199-0.596c-0.45-0.597-0.392-1.435,0.137-1.964
			c0.911-0.911,2.031-1.552,3.256-1.878l5.034-2.802c0.725-0.401,1.637-0.142,2.04,0.581c0.403,0.724,0.143,1.637-0.581,2.04
			l-1.309,0.728c0.599,0.316,1.151,0.722,1.64,1.211c0.586,0.586,0.586,1.535,0,2.121c-0.586,0.586-1.536,0.586-2.121,0
			c-0.751-0.75-1.778-1.142-2.888-1.127c-0.247,0.005-0.492,0.032-0.733,0.078l-2.548,1.419
			C38.13,25.167,37.88,25.228,37.632,25.228z"/>
	</g>
</g>
<g>
</g>
<g>
</g>
<g>
</g>
<g>
</g>
<g>
</g>
<g>
</g>
<g>
</g>
<g>
</g>
<g>
</g>
<g>
</g>
<g>
</g>
<g>
</g>
<g>
</g>
<g>
</g>
<g>
</g>
</svg>
