<svg xmlns="http://www.w3.org/2000/svg" viewBox="0 0 567.62 461.84"><defs><style>.cls-1{fill:#ef5280;}.cls-2{fill:#fff;opacity:0.15;}.cls-3{fill:#d7cdc0;}.cls-4{fill:#a31e22;}.cls-5{fill:#603b17;}.cls-6{fill:#b69675;}.cls-7{fill:#010101;}</style></defs><title>BoredRoom</title><g id="Layer_2" data-name="Layer 2"><circle class="cls-1" cx="275.24" cy="174.85" r="174.85"/><path class="cls-2" d="M311.12,414.06a174.85,174.85,0,1,1,0-349.69" transform="translate(-37.17 -64.37)"/></g><g id="Layer_1" data-name="Layer 1"><path class="cls-3" d="M285.91,190.82a31.11,31.11,0,1,1-31.11-31.11A31.11,31.11,0,0,1,285.91,190.82Z" transform="translate(-37.17 -64.37)"/><path class="cls-3" d="M400,190.82a31.11,31.11,0,1,1-31.11-31.11A31.11,31.11,0,0,1,400,190.82Z" transform="translate(-37.17 -64.37)"/><path class="cls-4" d="M332.58,268.59a5.18,5.18,0,0,1-3.66-1.51,30.45,30.45,0,0,0-17.08-8.86,30.42,30.42,0,0,0-17.08,8.86,5.19,5.19,0,0,1-7.33-7.34c1.22-1.22,12.24-11.89,24.41-11.89s23.19,10.67,24.41,11.89a5.19,5.19,0,0,1-3.67,8.85Z" transform="translate(-37.17 -64.37)"/><path class="cls-5" d="M265.17,190.82a10.37,10.37,0,1,1-10.37-10.37A10.37,10.37,0,0,1,265.17,190.82Z" transform="translate(-37.17 -64.37)"/><path class="cls-5" d="M379.25,190.82a10.37,10.37,0,1,1-10.37-10.37A10.38,10.38,0,0,1,379.25,190.82Z" transform="translate(-37.17 -64.37)"/><path class="cls-6" d="M254.8,159.71a31.11,31.11,0,0,0-31.11,31.11h62.22A31.1,31.1,0,0,0,254.8,159.71Z" transform="translate(-37.17 -64.37)"/><path class="cls-6" d="M368.88,159.71a31.1,31.1,0,0,0-31.11,31.11H400A31.11,31.11,0,0,0,368.88,159.71Z" transform="translate(-37.17 -64.37)"/><path class="cls-7" d="M254.8,154.52a36.3,36.3,0,1,0,36.3,36.3A36.3,36.3,0,0,0,254.8,154.52Zm0,62.22A26,26,0,0,1,229.4,196h16.47a10.28,10.28,0,0,0,17.86,0h16.48A26,26,0,0,1,254.8,216.74Zm8.94-31.11a10.29,10.29,0,0,0-17.87,0H229.4a25.92,25.92,0,0,1,50.81,0Z" transform="translate(-37.17 -64.37)"/><path class="cls-7" d="M368.88,154.52a36.3,36.3,0,1,0,36.29,36.3A36.3,36.3,0,0,0,368.88,154.52Zm0,62.22A26,26,0,0,1,343.47,196h16.47a10.28,10.28,0,0,0,17.86,0h16.48A26,26,0,0,1,368.88,216.74Zm8.93-31.11a10.29,10.29,0,0,0-17.87,0H343.47a25.92,25.92,0,0,1,50.81,0Z" transform="translate(-37.17 -64.37)"/><path class="cls-7" d="M311.84,247.85c-12.17,0-23.19,10.67-24.41,11.89a5.19,5.19,0,0,0,7.33,7.34,30.42,30.42,0,0,1,17.08-8.86,30.42,30.42,0,0,1,17.08,8.86,5.19,5.19,0,0,0,7.33-7.34C335,258.52,324,247.85,311.84,247.85Z" transform="translate(-37.17 -64.37)"/><path d="M79.47,490.57c9.11,5.71,12,12.2,9.79,21.27-1.92,7.71-7.48,12.54-16.46,12.86-11.78.43-23.59.11-35.63.11V459.15h18c4.4,0,8.8,0,13.2,0,8.75.07,14.92,3.7,17.33,10.14C88.71,477.22,86.58,484.55,79.47,490.57Zm-26.25,7.3v11.89c4.66,0,9,0,13.42,0s6.52-1.78,6.7-5.39c.19-3.78-1.92-6.19-6.25-6.43C62.6,497.68,58.09,497.87,53.22,497.87Zm0-13.11c4.61,0,9,.21,13.33-.06,3.11-.2,4.49-2.28,4.43-5.44s-1.5-4.85-4.45-5c-4.36-.19-8.73,0-13.31,0Z" transform="translate(-37.17 -64.37)"/><path d="M353.49,459.31c10.55,0,20.86-.44,31.11.13,10.1.55,16.89,6.75,19,15.93,2.48,10.74-1.09,20.19-9.66,25.58-.51.32-1,.7-1.69,1.22l7.12,11.21c2.27,3.58,4.53,7.17,7.22,11.45-6.44,0-12.25.09-18.06-.1-.76,0-1.65-1.31-2.16-2.19-2.58-4.45-5.35-8.83-7.48-13.49-2-4.27-4.7-5.85-9.53-4.27v19.79H353.49Zm15.8,30.16c4.81-.28,9.31-.22,13.71-.9,3.83-.59,5.05-3.64,5-7.3s-1.7-6.35-5.23-6.74c-4.4-.49-8.9-.12-13.48-.12Z" transform="translate(-37.17 -64.37)"/><path d="M604.69,524.73h-15v-4c0-8.3.07-16.61-.07-24.91-.1-5.7-3.77-8.77-9-7.91-3.83.62-6,3.55-6,8.74-.1,8.05,0,16.1,0,24.16v3.82H559.58c0-5.44,0-10.69,0-15.94,0-4.53.07-9.06-.15-13.58s-2.7-7-6.64-7.25c-4.5-.3-7.19,1.6-7.95,6.17a60,60,0,0,0-.45,9c0,7.14,0,14.27,0,21.6H529.6c0-2.66,0-5.24,0-7.83.06-7.67,0-15.35.26-23,.27-8.46,3.69-15.31,11.94-18.4,8.9-3.33,17.31-2.29,24.24,5a14.19,14.19,0,0,0,1.08.93,20.72,20.72,0,0,1,17.94-7.56c11.95.85,18.75,7.94,19.46,20.77.49,8.79.14,17.61.16,26.42Z" transform="translate(-37.17 -64.37)"/><path d="M300.45,479.46V453.51h14.7a21.33,21.33,0,0,1,.31,2.55c0,14.72.1,29.44,0,44.16-.1,12.4-6.92,21.58-18.13,24.84-10.77,3.14-22.46-.29-29-8.51s-7.4-21.68-2.08-31C273.19,473.33,287.64,470.58,300.45,479.46Zm0,20.64c0-7.14-4.45-12.11-11-12.2-6.72-.1-11.61,5-11.6,12.11s4.73,12,11.32,12S300.4,507.2,300.43,500.1Z" transform="translate(-37.17 -64.37)"/><path d="M256.38,504.31h-35.9c.6,5,4,8.1,9.33,8.36a17.52,17.52,0,0,0,6.63-.95c7.75-2.83,9.91-3.23,18.39-2.47-1,8.92-12.58,18.06-25.91,16.74-16.45-1.63-26.2-13.62-24.35-29.59A25.74,25.74,0,0,1,233,473.82C249.18,475.68,258.51,487.57,256.38,504.31Zm-36-9.92h20.81c-1.83-4.87-4.85-7-10-7.13S222.65,489.2,220.38,494.39Z" transform="translate(-37.17 -64.37)"/><path d="M469.31,500.12c-.09-15.35,11-26.46,26.32-26.43,15.11,0,26.24,11.07,26.37,26.13s-11.14,26.4-26.45,26.35S469.4,515.37,469.31,500.12Zm26.45-12.22c-6.65-.08-11.22,4.68-11.33,11.8-.12,7.36,4.4,12.34,11.18,12.32,6.61,0,11.23-4.94,11.27-12S502.3,488,495.76,487.9Z" transform="translate(-37.17 -64.37)"/><path d="M122.22,473.69c15.2.12,26.56,11.62,26.3,26.63s-11.58,26.05-26.65,25.85c-15.53-.21-26.26-11.11-26.16-26.56C95.81,484.61,107.1,473.58,122.22,473.69Zm-.12,14.21c-6.66,0-11.24,4.81-11.28,11.92,0,7.31,4.57,12.28,11.37,12.2,6.59-.08,11.27-5.12,11.22-12.11S128.63,487.92,122.1,487.9Z" transform="translate(-37.17 -64.37)"/><path d="M463.54,500.11c0,15.09-11,26-26.3,26S410.66,515,410.71,499.82c.05-14.92,11.36-26.09,26.43-26.13C452.45,473.66,463.56,484.78,463.54,500.11Zm-15.1-.12c0-7.12-4.54-12-11.14-12.09s-11.55,5.13-11.48,12.22,4.83,11.93,11.43,11.9S448.43,507.12,448.44,500Z" transform="translate(-37.17 -64.37)"/><path d="M199.64,496.77H185.58c-.21-.91-.45-1.85-.63-2.81-.82-4.36-3-6.18-7.2-6.07-3.92.11-6.26,2-6.53,6.31-.42,6.64-.33,13.32-.41,20-.05,3.38,0,6.77,0,10.42H156.38c0-11.14-.86-22.25.21-33.17,1.42-14.55,13.25-18.6,24.08-17.5C193.78,475.27,201.18,484.41,199.64,496.77Z" transform="translate(-37.17 -64.37)"/></g></svg>
