<?xml version="1.0" encoding="iso-8859-1"?>
<!-- Generator: Adobe Illustrator 19.1.0, SVG Export Plug-In . SVG Version: 6.00 Build 0)  -->
<svg version="1.1" id="Capa_1" xmlns="http://www.w3.org/2000/svg" xmlns:xlink="http://www.w3.org/1999/xlink" x="0px" y="0px"
	 viewBox="0 0 66.38 66.38" style="enable-background:new 0 0 66.38 66.38;" xml:space="preserve">
<g>
	<g id="group-46svg">
		<path id="path-1_39_" style="fill:#EDC951;" d="M66.38,35.35c0,16.616-13.471,30.086-30.089,30.086S6.201,51.966,6.201,35.35
			S19.673,5.265,36.291,5.265S66.38,18.734,66.38,35.35z"/>
		<path id="path-2_39_" style="fill:#FFFFFF;" d="M54.58,27.71c0,3.705-3.004,6.709-6.71,6.709c-3.706,0-6.71-3.004-6.71-6.709
			s3.004-6.709,6.71-6.709C51.576,21.001,54.58,24.005,54.58,27.71z"/>
		<path id="path-3_39_" style="fill:#FFFFFF;" d="M32.268,27.71c0,3.705-3.004,6.709-6.71,6.709s-6.71-3.004-6.71-6.709
			s3.004-6.709,6.71-6.709S32.268,24.005,32.268,27.71z"/>
		<path id="path-4_39_" d="M46.159,24.485c0,1.875-1.519,3.395-3.395,3.395c-1.875,0-3.395-1.52-3.395-3.395
			c0-1.874,1.52-3.394,3.395-3.394C44.64,21.091,46.159,22.611,46.159,24.485z"/>
		<path id="path-5_39_" d="M43.169,33.099c-4.527,0-8.21-3.683-8.21-8.209c0-4.527,3.683-8.209,8.21-8.209
			c4.526,0,8.209,3.682,8.209,8.209C51.378,29.416,47.695,33.099,43.169,33.099z M43.169,19.68c-2.873,0-5.21,2.337-5.21,5.21
			c0,2.872,2.337,5.209,5.21,5.209c2.872,0,5.209-2.337,5.209-5.209C48.378,22.017,46.041,19.68,43.169,19.68z"/>
		<path id="path-6_32_" d="M20.857,33.099c-4.527,0-8.21-3.683-8.21-8.209c0-4.527,3.683-8.209,8.21-8.209
			c4.526,0,8.209,3.682,8.209,8.209C29.066,29.416,25.383,33.099,20.857,33.099z M20.857,19.68c-2.873,0-5.21,2.337-5.21,5.21
			c0,2.872,2.337,5.209,5.21,5.209c2.872,0,5.209-2.337,5.209-5.209C26.066,22.017,23.729,19.68,20.857,19.68z"/>
		<path id="path-7_30_" d="M23.848,24.485c0,1.875-1.52,3.395-3.396,3.395c-1.875,0-3.395-1.52-3.395-3.395
			c0-1.874,1.52-3.394,3.395-3.394C22.328,21.091,23.848,22.611,23.848,24.485z"/>
		<path id="path-8_20_" d="M39.368,44.959c-0.337,0-0.675-0.112-0.955-0.344c-6.312-5.22-12.288-0.231-12.539-0.015
			c-0.63,0.537-1.577,0.464-2.116-0.165c-0.538-0.63-0.464-1.577,0.165-2.115c2.793-2.388,9.814-5.464,16.402-0.016
			c0.638,0.528,0.728,1.473,0.2,2.112C40.228,44.774,39.799,44.959,39.368,44.959z"/>
		<path id="path-9_16_" d="M42.154,49.507c-0.395,0-0.789-0.156-1.084-0.463c-4.213-4.404-1.894-9.78-0.079-12.007
			c0.524-0.642,1.468-0.739,2.111-0.216c0.641,0.523,0.738,1.465,0.218,2.107c-0.153,0.192-3.502,4.468-0.082,8.042
			c0.573,0.599,0.552,1.548-0.046,2.121C42.9,49.369,42.527,49.507,42.154,49.507z"/>
		<path id="path-10_11_" d="M22.733,49.507c-0.373,0-0.746-0.138-1.037-0.416c-0.599-0.573-0.62-1.522-0.047-2.121
			c3.425-3.579,0.063-7.862-0.083-8.043c-0.516-0.645-0.416-1.588,0.226-2.107c0.643-0.519,1.582-0.423,2.104,0.217
			c1.815,2.227,4.134,7.603-0.079,12.007C23.522,49.351,23.128,49.507,22.733,49.507z"/>
		<path id="path-11_5_" d="M31.589,64.115C14.171,64.115,0,49.946,0,32.53C0,15.113,14.171,0.944,31.589,0.944
			c17.419,0,31.59,14.169,31.59,31.586C63.179,49.946,49.008,64.115,31.589,64.115z M31.589,3.944C15.825,3.944,3,16.767,3,32.53
			c0,15.762,12.825,28.586,28.589,28.586c15.765,0,28.59-12.824,28.59-28.586C60.179,16.767,47.354,3.944,31.589,3.944z"/>
	</g>
</g>
<g>
</g>
<g>
</g>
<g>
</g>
<g>
</g>
<g>
</g>
<g>
</g>
<g>
</g>
<g>
</g>
<g>
</g>
<g>
</g>
<g>
</g>
<g>
</g>
<g>
</g>
<g>
</g>
<g>
</g>
</svg>
