<?xml version="1.0" encoding="iso-8859-1"?>
<!-- Generator: Adobe Illustrator 19.1.0, SVG Export Plug-In . SVG Version: 6.00 Build 0)  -->
<svg version="1.1" id="Capa_1" xmlns="http://www.w3.org/2000/svg" xmlns:xlink="http://www.w3.org/1999/xlink" x="0px" y="0px"
	 viewBox="0 0 67.32 67.32" style="enable-background:new 0 0 67.32 67.32;" xml:space="preserve">
<g>
	<g id="group-22svg">
		<path id="path-1_13_" style="fill:#EDC951;" d="M67.32,35.819c0,16.617-13.471,30.087-30.089,30.087S7.142,52.437,7.142,35.819
			c0-16.615,13.471-30.085,30.089-30.085S67.32,19.205,67.32,35.819z"/>
		<path id="path-2_13_" d="M18.145,31.142c-0.592,0-1.153-0.353-1.39-0.934c-0.312-0.767,0.056-1.643,0.823-1.956l4.592-1.871
			l-4.64-2.583c-0.724-0.403-0.984-1.316-0.581-2.04c0.403-0.723,1.315-0.985,2.04-0.581l7.37,4.102
			c0.503,0.28,0.802,0.825,0.767,1.401s-0.396,1.08-0.931,1.299l-7.484,3.051C18.525,31.107,18.333,31.142,18.145,31.142z"/>
		<path id="path-3_13_" d="M46.352,31.882c-0.231,0-0.466-0.054-0.685-0.167l-7.37-3.792c-0.492-0.253-0.805-0.756-0.814-1.309
			c-0.009-0.553,0.287-1.066,0.771-1.335l7.37-4.102c0.725-0.402,1.637-0.142,2.04,0.581c0.402,0.724,0.143,1.637-0.581,2.04
			l-4.923,2.74l4.88,2.51c0.736,0.379,1.026,1.283,0.647,2.02C47.421,31.586,46.896,31.882,46.352,31.882z"/>
		<path id="path-4_13_" d="M20.612,49.993c-0.43,0-0.857-0.184-1.153-0.54c-0.531-0.636-0.445-1.582,0.192-2.112l3.947-3.289
			c0.548-0.456,1.341-0.464,1.897-0.019l3.136,2.507l2.838-2.468c0.564-0.491,1.404-0.491,1.969,0l2.856,2.484l3.304-2.541
			c0.574-0.442,1.385-0.41,1.923,0.079l3.619,3.289c0.613,0.557,0.658,1.506,0.101,2.119c-0.557,0.613-1.506,0.658-2.119,0.101
			l-2.69-2.445l-3.282,2.524c-0.565,0.435-1.359,0.411-1.898-0.057l-2.799-2.433l-2.798,2.433c-0.547,0.476-1.355,0.492-1.921,0.039
			l-3.156-2.524l-3.007,2.505C21.291,49.88,20.95,49.993,20.612,49.993z"/>
		<path id="path-5_13_" d="M31.589,64.586C14.171,64.586,0,50.416,0,33S14.171,1.414,31.589,1.414
			c17.419,0,31.59,14.17,31.59,31.586S49.008,64.586,31.589,64.586z M31.589,4.414C15.825,4.414,3,17.238,3,33
			c0,15.763,12.825,28.586,28.589,28.586c15.765,0,28.59-12.823,28.59-28.586C60.179,17.238,47.354,4.414,31.589,4.414z"/>
	</g>
</g>
<g>
</g>
<g>
</g>
<g>
</g>
<g>
</g>
<g>
</g>
<g>
</g>
<g>
</g>
<g>
</g>
<g>
</g>
<g>
</g>
<g>
</g>
<g>
</g>
<g>
</g>
<g>
</g>
<g>
</g>
</svg>
