<?xml version="1.0" encoding="iso-8859-1"?>
<!-- Generator: Adobe Illustrator 19.1.0, SVG Export Plug-In . SVG Version: 6.00 Build 0)  -->
<svg version="1.1" id="Capa_1" xmlns="http://www.w3.org/2000/svg" xmlns:xlink="http://www.w3.org/1999/xlink" x="0px" y="0px"
	 viewBox="0 0 66.381 66.381" style="enable-background:new 0 0 66.381 66.381;" xml:space="preserve">
<g>
	<g id="group-25svg">
		<path id="path-1_16_" style="fill:#EDC951;" d="M66.381,35.35c0,16.617-13.472,30.087-30.09,30.087S6.201,51.967,6.201,35.35
			c0-16.615,13.472-30.085,30.09-30.085S66.381,18.735,66.381,35.35z"/>
		<path id="path-2_16_" style="fill:#8B71B5;" d="M43.954,49.876c0,3.413-2.766,6.179-6.179,6.179c-3.413,0-6.18-2.766-6.18-6.179
			c0-3.412,2.767-6.179,6.18-6.179C41.188,43.697,43.954,46.464,43.954,49.876z"/>
		<path id="path-3_16_" style="fill:#FFFFFF;" d="M56.178,28.252c0,3.413-2.767,6.18-6.18,6.18c-3.413,0-6.18-2.767-6.18-6.18
			s2.767-6.179,6.18-6.179C53.411,22.073,56.178,24.839,56.178,28.252z"/>
		<path id="path-4_16_" style="fill:#FFFFFF;" d="M32.807,28.252c0,3.413-2.767,6.18-6.18,6.18s-6.18-2.767-6.18-6.18
			s2.767-6.179,6.18-6.179S32.807,24.839,32.807,28.252z"/>
		<path id="path-5_16_" d="M32.133,54.735c-4.235,0-7.68-3.445-7.68-7.679s3.445-7.679,7.68-7.679c4.234,0,7.68,3.445,7.68,7.679
			S36.367,54.735,32.133,54.735z M32.133,42.376c-2.581,0-4.68,2.1-4.68,4.68c0,2.58,2.099,4.679,4.68,4.679
			c2.58,0,4.68-2.099,4.68-4.679C36.813,44.476,34.713,42.376,32.133,42.376z"/>
		<path id="path-6_12_" d="M47.112,25.059c0,1.727-1.4,3.127-3.128,3.127c-1.727,0-3.127-1.4-3.127-3.127
			c0-1.727,1.4-3.126,3.127-3.126C45.712,21.933,47.112,23.332,47.112,25.059z"/>
		<path id="path-7_11_" d="M44.357,33.111c-4.235,0-7.68-3.445-7.68-7.679c0-4.235,3.445-7.68,7.68-7.68
			c4.234,0,7.679,3.445,7.679,7.68C52.036,29.666,48.591,33.111,44.357,33.111z M44.357,20.752c-2.581,0-4.68,2.099-4.68,4.68
			c0,2.58,2.099,4.679,4.68,4.679c2.58,0,4.679-2.099,4.679-4.679C49.036,22.851,46.937,20.752,44.357,20.752z"/>
		<path id="path-8_9_" d="M20.985,33.111c-4.234,0-7.68-3.445-7.68-7.679c0-4.235,3.446-7.68,7.68-7.68
			c4.235,0,7.68,3.445,7.68,7.68C28.665,29.666,25.22,33.111,20.985,33.111z M20.985,20.752c-2.58,0-4.68,2.099-4.68,4.68
			c0,2.58,2.1,4.679,4.68,4.679c2.581,0,4.68-2.099,4.68-4.679C25.665,22.851,23.566,20.752,20.985,20.752z"/>
		<path id="path-9_7_" d="M23.741,25.059c0,1.727-1.401,3.127-3.128,3.127c-1.727,0-3.127-1.4-3.127-3.127
			c0-1.727,1.4-3.126,3.127-3.126C22.34,21.933,23.741,23.332,23.741,25.059z"/>
		<path id="path-10_5_" d="M31.59,64.116C14.171,64.116,0,49.946,0,32.53S14.171,0.944,31.59,0.944
			c17.418,0,31.589,14.17,31.589,31.586S49.008,64.116,31.59,64.116z M31.59,3.944C15.825,3.944,3,16.768,3,32.53
			c0,15.763,12.825,28.586,28.59,28.586c15.764,0,28.589-12.823,28.589-28.586C60.179,16.768,47.354,3.944,31.59,3.944z"/>
	</g>
</g>
<g>
</g>
<g>
</g>
<g>
</g>
<g>
</g>
<g>
</g>
<g>
</g>
<g>
</g>
<g>
</g>
<g>
</g>
<g>
</g>
<g>
</g>
<g>
</g>
<g>
</g>
<g>
</g>
<g>
</g>
</svg>
